<!DOCTYPE svg PUBLIC "-//W3C//DTD SVG 1.1//EN" "http://www.w3.org/Graphics/SVG/1.1/DTD/svg11.dtd">
<!-- Uploaded to: SVG Repo, www.svgrepo.com, Transformed by: SVG Repo Mixer Tools -->
<svg width="800px" height="800px" viewBox="0 0 32 32" version="1.1" xml:space="preserve" xmlns="http://www.w3.org/2000/svg" xmlns:xlink="http://www.w3.org/1999/xlink" fill="#000000">
<g id="SVGRepo_bgCarrier" stroke-width="0"/>
<g id="SVGRepo_tracerCarrier" stroke-linecap="round" stroke-linejoin="round"/>
<g id="SVGRepo_iconCarrier"> <style type="text/css"> .st0{stroke:#231F20;stroke-width:2;stroke-linecap:round;stroke-linejoin:round;stroke-miterlimit:10;} </style> <g id="Musik_icon"> <path d="M22.7,8.82c0.1,0.35,0.21,0.72,0.33,1.12c0.1,0.36,0.19,0.73,0.29,1.13C23.69,12.62,24,14.38,24,16c0,0.55-0.45,1-1,1 s-1-0.45-1-1c0-1.81-0.44-3.86-0.9-5.51h-0.01c-0.1-0.38-0.21-0.75-0.32-1.08C20.65,9,20.53,8.64,20.43,8.34h-0.01 C19.03,8.12,17.54,8,16,8c-0.16,0-0.33,0-0.49,0.01C15.62,8.3,15.74,8.63,15.85,9c0.1,0.31,0.2,0.64,0.3,1 c0.46,1.62,0.85,3.7,0.85,6c0,0.55-0.45,1-1,1s-1-0.45-1-1c0-2.3-0.45-4.4-0.91-5.93c-0.11-0.36-0.22-0.69-0.32-0.98 c-0.13-0.39-0.26-0.71-0.37-0.97C11.62,8.28,9.95,8.6,8.46,9.05c0.09,0.29,0.2,0.6,0.32,0.95c0.09,0.3,0.19,0.62,0.29,0.95 C9.55,12.57,10,14.49,10,16c0,0.55-0.45,1-1,1s-1-0.45-1-1c0-1.25-0.39-2.91-0.82-4.37c-0.09-0.33-0.19-0.64-0.29-0.94 c-0.11-0.34-0.22-0.66-0.32-0.95C3.15,11.19,1,13.43,1,16c0,4.49,6.59,8,15,8s15-3.51,15-8C31,12.8,27.66,10.1,22.7,8.82z"/> </g> </g>
</svg>