<!DOCTYPE svg PUBLIC "-//W3C//DTD SVG 1.1//EN" "http://www.w3.org/Graphics/SVG/1.1/DTD/svg11.dtd">
<!-- Uploaded to: SVG Repo, www.svgrepo.com, Transformed by: SVG Repo Mixer Tools -->
<svg width="800px" height="800px" viewBox="0 0 32 32" version="1.1" xml:space="preserve" xmlns="http://www.w3.org/2000/svg" xmlns:xlink="http://www.w3.org/1999/xlink" fill="#000000">
<g id="SVGRepo_bgCarrier" stroke-width="0"/>
<g id="SVGRepo_tracerCarrier" stroke-linecap="round" stroke-linejoin="round"/>
<g id="SVGRepo_iconCarrier"> <style type="text/css"> .st0{stroke:#231F20;stroke-width:2;stroke-linecap:round;stroke-linejoin:round;stroke-miterlimit:10;} </style> <g id="Musik_icon"> <g> <path d="M27.95,7.68l-1-3C26.81,4.28,26.43,4,26,4h-0.28h-1.05H7.33H6.28H6C5.57,4,5.19,4.28,5.05,4.68l-1,3 C3.95,7.99,4,8.32,4.19,8.58C4.38,8.85,4.68,9,5,9h0.13h1.01h19.72h1.01H27c0.32,0,0.62-0.15,0.81-0.42 C28,8.32,28.05,7.99,27.95,7.68z"/> <circle cx="16" cy="16" r="2"/> <path d="M23.76,17h-3.89c-0.44,1.73-2.01,3-3.87,3s-3.43-1.27-3.87-3H8.24H7.23H6.22l1.55,11.41C7.98,29.88,9.25,31,10.75,31h10.5 c1.5,0,2.77-1.12,2.98-2.59L25.78,17h-1.01H23.76z"/> <path d="M24.71,10H7.29H6.28H5.27l0.67,5h1.01h1.02h4.16c0.44-1.73,2.01-3,3.87-3s3.43,1.27,3.87,3h4.16h1.02h1.01l0.68-5h-1.01 H24.71z"/> <path d="M24.33,3h1.06l-0.44-1.32C24.81,1.28,24.43,1,24,1H8C7.57,1,7.19,1.28,7.05,1.68L6.61,3h1.06H24.33z"/> </g> </g> </g>
</svg>