<!DOCTYPE svg PUBLIC "-//W3C//DTD SVG 1.1//EN" "http://www.w3.org/Graphics/SVG/1.1/DTD/svg11.dtd">
<!-- Uploaded to: SVG Repo, www.svgrepo.com, Transformed by: SVG Repo Mixer Tools -->
<svg width="800px" height="800px" viewBox="0 0 32 32" version="1.1" xml:space="preserve" xmlns="http://www.w3.org/2000/svg" xmlns:xlink="http://www.w3.org/1999/xlink" fill="#000000">
<g id="SVGRepo_bgCarrier" stroke-width="0"/>
<g id="SVGRepo_tracerCarrier" stroke-linecap="round" stroke-linejoin="round"/>
<g id="SVGRepo_iconCarrier"> <style type="text/css"> .st0{stroke:#231F20;stroke-width:2;stroke-linecap:round;stroke-linejoin:round;stroke-miterlimit:10;} </style> <g id="Musik_icon"> <g> <path d="M26.74,5.32C26.55,5.12,26.28,5,26,5V2c0-0.55-0.45-1-1-1c-0.55,0-1,0.45-1,1v3h-1V4c0-0.55-0.45-1-1-1 c-0.55,0-1,0.45-1,1v1c-0.55,0-1,0.45-1,1V3c0-0.55-0.45-1-1-1c-0.55,0-1,0.45-1,1v6.46c-0.31,0.18-0.64,0.32-1,0.41V4 c0-0.55-0.45-1-1-1c-0.55,0-1,0.45-1,1v5.87c-0.36-0.09-0.69-0.23-1-0.41V2c0-0.55-0.45-1-1-1s-1,0.45-1,1v4c0-0.55-0.45-1-1-1V3 c0-0.55-0.45-1-1-1C9.45,2,9,2.45,9,3v2H8V2c0-0.55-0.45-1-1-1S6,1.45,6,2v3C5.72,5,5.45,5.12,5.26,5.32 C5.08,5.53,4.98,5.8,5,6.08L5.91,17h1.01h1h4.21c0.44-1.73,2.01-3,3.87-3s3.43,1.27,3.87,3h4.21h1h1.01L27,6.08 C27.02,5.8,26.92,5.53,26.74,5.32z"/> <circle cx="16" cy="18" r="2"/> <path d="M23.91,19h-4.04c-0.44,1.73-2.01,3-3.87,3s-3.43-1.27-3.87-3H8.09H7.08h-1l0.77,9.25C6.98,29.79,8.29,31,9.84,31h12.32 c1.55,0,2.86-1.21,2.99-2.75L25.92,19h-1H23.91z"/> </g> </g> </g>
</svg>